<?xml version="1.0" standalone="no"?>
<!DOCTYPE svg PUBLIC "-//W3C//DTD SVG 20010904//EN"
 "http://www.w3.org/TR/2001/REC-SVG-20010904/DTD/svg10.dtd">
<svg version="1.0" xmlns="http://www.w3.org/2000/svg"
 width="200.000000pt" height="200.000000pt" viewBox="0 0 200.000000 200.000000"
 preserveAspectRatio="xMidYMid meet">
<metadata>
Created by potrace 1.14, written by Peter Selinger 2001-2017
</metadata>
<g transform="translate(0.000000,200.000000) scale(0.100000,-0.100000)"
fill="#000000" stroke="none">
<path d="M1267 1376 c-15 -14 -32 -45 -39 -71 -11 -41 -16 -46 -53 -56 -153
-39 -177 -52 -180 -90 -2 -26 -2 -26 -44 -4 -36 18 -119 15 -153 -6 -20 -13
-27 -13 -58 2 -36 17 -136 23 -146 8 -3 -5 -13 -5 -23 1 -10 5 -55 7 -99 3
-56 -3 -82 -2 -82 6 0 6 -22 23 -50 39 -43 25 -56 27 -103 22 -63 -7 -103 -30
-119 -68 -6 -15 -12 -79 -12 -142 -2 -127 13 -195 45 -205 27 -9 23 -24 -8
-31 -87 -19 -122 -39 -123 -71 0 -19 53 -43 71 -33 48 27 286 29 424 4 17 -3
39 -7 50 -8 26 -5 105 -14 175 -21 30 -3 78 -8 105 -11 28 -3 79 -6 115 -8 36
-2 99 -7 140 -10 99 -9 282 -10 345 -2 68 9 138 19 150 22 6 1 28 5 50 8 32 5
78 17 125 31 3 1 18 7 33 13 16 7 32 12 37 12 25 0 120 51 129 69 9 17 8 24
-9 41 -11 11 -25 20 -32 20 -7 0 -6 6 4 18 8 9 14 28 12 42 -2 14 -5 44 -7 67
-3 57 -24 76 -86 76 -48 1 -50 3 -53 31 -4 43 -28 54 -80 36 -31 -11 -44 -21
-46 -38 -4 -28 -37 -48 -46 -27 -3 8 -3 21 -1 28 13 34 -42 53 -93 31 -30 -12
-36 -22 -33 -50 1 -6 -10 -11 -24 -11 -24 0 -25 2 -24 54 2 42 5 53 16 48 28
-10 51 17 47 55 -5 38 -25 59 -61 61 -13 1 -27 3 -33 4 -5 1 -24 3 -40 4 l-30
1 14 35 c18 41 13 58 -19 79 -17 11 -26 12 -31 5 -5 -8 -8 -8 -14 0 -4 8 -15
3 -33 -13z m-171 -581 c37 -2 66 3 89 15 29 15 35 15 39 3 16 -39 9 -44 -61
-37 -115 10 -127 11 -171 19 -42 7 -43 8 -25 25 17 16 19 16 46 -2 18 -13 48
-21 83 -23z m718 15 c5 -5 -14 -9 -73 -13 -13 -1 -26 3 -27 8 -4 10 90 15 100
5z"/>
</g>
</svg>
